<svg xmlns="http://www.w3.org/2000/svg" viewBox="0 0 32 32">
  <!-- Heart shape -->
  <path d="M15.645 26.91l-.007-.003-.022-.012a15.247 15.247 0 01-.383-.218 25.18 25.18 0 01-4.244-3.17C8.688 21.36 6.25 18.174 6.25 14.25 6.25 11.322 8.714 9 11.688 9A5.5 5.5 0 0116 11.052 5.5 5.5 0 0120.313 9c2.973 0 5.437 2.322 5.437 5.25 0 3.925-2.438 7.111-4.739 9.256a25.175 25.175 0 01-4.244 3.17 15.247 15.247 0 01-.383.219l-.022.012-.007.004-.003.001a.752.752 0 01-.704 0l-.003-.001z" fill="#111827" />

  <!-- Sparkle/star in the center -->
  <path d="M16 16l1-2.2 1 2.2 2.2 1-2.2 1-1 2.2-1-2.2-2.2-1 2.2-1z" fill="white" />
</svg>