<svg xmlns="http://www.w3.org/2000/svg" viewBox="0 0 800 600" width="800" height="600">
  <!-- Background -->
  <rect width="800" height="600" fill="#f5f3ff"/>
  
  <!-- Main Container -->
  <rect x="80" y="60" width="640" height="480" rx="12" ry="12" fill="#ffffff" stroke="#dddddd" stroke-width="2"/>
  
  <!-- Header -->
  <defs>
    <linearGradient id="headerGradient" x1="0%" y1="0%" x2="100%" y2="0%">
      <stop offset="0%" style="stop-color:#7c3aed" />
      <stop offset="100%" style="stop-color:#a78bfa" />
    </linearGradient>
  </defs>
  <rect x="80" y="60" width="640" height="60" rx="12" ry="12" fill="url(#headerGradient)"/>
  <text x="130" y="100" font-family="Arial" font-size="20" fill="#ffffff">School Scheduler Dashboard</text>
  
  <!-- User menu -->
  <circle cx="690" cy="90" r="6" fill="#ffffff"/>
  <circle cx="670" cy="90" r="6" fill="#ffffff"/>
  <circle cx="650" cy="90" r="6" fill="#ffffff"/>
  
  <!-- School Term Info -->
  <text x="100" y="150" font-family="Arial" font-size="14" fill="#64748b">Current Term: Term 2, 2023 • 45 days left</text>
  
  <!-- KPI Cards -->
  <!-- Card 1 -->
  <rect x="100" y="170" width="180" height="100" rx="8" ry="8" fill="#ffffff" stroke="#e2e8f0" stroke-width="2"/>
  <text x="120" y="195" font-family="Arial" font-size="14" fill="#64748b">Total Classes</text>
  <text x="120" y="240" font-family="Arial" font-size="28" font-weight="bold" fill="#1e293b">42</text>
  <rect x="100" y="260" width="180" height="3" fill="#a78bfa"/>
  
  <!-- Card 2 -->
  <rect x="310" y="170" width="180" height="100" rx="8" ry="8" fill="#ffffff" stroke="#e2e8f0" stroke-width="2"/>
  <text x="330" y="195" font-family="Arial" font-size="14" fill="#64748b">Teachers</text>
  <text x="330" y="240" font-family="Arial" font-size="28" font-weight="bold" fill="#1e293b">18</text>
  <rect x="310" y="260" width="180" height="3" fill="#a78bfa"/>
  
  <!-- Card 3 -->
  <rect x="520" y="170" width="180" height="100" rx="8" ry="8" fill="#ffffff" stroke="#e2e8f0" stroke-width="2"/>
  <text x="540" y="195" font-family="Arial" font-size="14" fill="#64748b">Schedule Completion</text>
  <text x="540" y="240" font-family="Arial" font-size="28" font-weight="bold" fill="#1e293b">93%</text>
  <rect x="520" y="260" width="180" height="3" fill="#a78bfa"/>
  
  <!-- Weekly Overview Label -->
  <text x="100" y="310" font-family="Arial" font-size="18" font-weight="bold" fill="#1e293b">Weekly Timetable Overview</text>
  
  <!-- Weekly Calendar -->
  <rect x="100" y="330" width="600" height="180" rx="8" ry="8" fill="#ffffff" stroke="#e2e8f0" stroke-width="2"/>
  
  <!-- Calendar Headers -->
  <rect x="100" y="330" width="600" height="30" rx="8" ry="8" fill="#f8fafc"/>
  <text x="145" y="350" font-family="Arial" font-size="12" font-weight="bold" fill="#64748b">MONDAY</text>
  <text x="245" y="350" font-family="Arial" font-size="12" font-weight="bold" fill="#64748b">TUESDAY</text>
  <text x="345" y="350" font-family="Arial" font-size="12" font-weight="bold" fill="#64748b">WEDNESDAY</text>
  <text x="450" y="350" font-family="Arial" font-size="12" font-weight="bold" fill="#64748b">THURSDAY</text>
  <text x="555" y="350" font-family="Arial" font-size="12" font-weight="bold" fill="#64748b">FRIDAY</text>
  
  <!-- Calendar Grid Lines -->
  <line x1="200" y1="330" x2="200" y2="510" stroke="#e2e8f0" stroke-width="1"/>
  <line x1="300" y1="330" x2="300" y2="510" stroke="#e2e8f0" stroke-width="1"/>
  <line x1="400" y1="330" x2="400" y2="510" stroke="#e2e8f0" stroke-width="1"/>
  <line x1="500" y1="330" x2="500" y2="510" stroke="#e2e8f0" stroke-width="1"/>
  <line x1="100" y1="360" x2="700" y2="360" stroke="#e2e8f0" stroke-width="1"/>
  <line x1="100" y1="400" x2="700" y2="400" stroke="#e2e8f0" stroke-width="1"/>
  <line x1="100" y1="440" x2="700" y2="440" stroke="#e2e8f0" stroke-width="1"/>
  <line x1="100" y1="480" x2="700" y2="480" stroke="#e2e8f0" stroke-width="1"/>
  
  <!-- Calendar Events -->
  <rect x="110" y="365" width="80" height="30" rx="4" ry="4" fill="#ddd6fe"/>
  <text x="120" y="384" font-family="Arial" font-size="11" fill="#5b21b6">Math Gr.4</text>
  
  <rect x="210" y="365" width="80" height="30" rx="4" ry="4" fill="#c7d2fe"/>
  <text x="220" y="384" font-family="Arial" font-size="11" fill="#3730a3">English Gr.5</text>
  
  <rect x="310" y="365" width="80" height="30" rx="4" ry="4" fill="#fef3c7"/>
  <text x="320" y="384" font-family="Arial" font-size="11" fill="#92400e">History Gr.3</text>
  
  <rect x="410" y="365" width="80" height="30" rx="4" ry="4" fill="#d1fae5"/>
  <text x="420" y="384" font-family="Arial" font-size="11" fill="#065f46">Science Gr.6</text>
  
  <rect x="510" y="365" width="80" height="30" rx="4" ry="4" fill="#ddd6fe"/>
  <text x="520" y="384" font-family="Arial" font-size="11" fill="#5b21b6">Math Gr.3</text>
  
  <rect x="110" y="405" width="80" height="30" rx="4" ry="4" fill="#c7d2fe"/>
  <text x="120" y="424" font-family="Arial" font-size="11" fill="#3730a3">English Gr.3</text>
  
  <rect x="210" y="405" width="80" height="30" rx="4" ry="4" fill="#d1fae5"/>
  <text x="220" y="424" font-family="Arial" font-size="11" fill="#065f46">Science Gr.4</text>
  
  <rect x="310" y="405" width="80" height="30" rx="4" ry="4" fill="#ddd6fe"/>
  <text x="320" y="424" font-family="Arial" font-size="11" fill="#5b21b6">Math Gr.5</text>
  
  <rect x="510" y="405" width="80" height="30" rx="4" ry="4" fill="#fef3c7"/>
  <text x="520" y="424" font-family="Arial" font-size="11" fill="#92400e">History Gr.6</text>
  
  <rect x="210" y="445" width="80" height="30" rx="4" ry="4" fill="#ddd6fe"/>
  <text x="220" y="464" font-family="Arial" font-size="11" fill="#5b21b6">Math Gr.6</text>
  
  <rect x="310" y="445" width="80" height="30" rx="4" ry="4" fill="#c7d2fe"/>
  <text x="320" y="464" font-family="Arial" font-size="11" fill="#3730a3">English Gr.6</text>
  
  <rect x="410" y="445" width="80" height="30" rx="4" ry="4" fill="#fef3c7"/>
  <text x="420" y="464" font-family="Arial" font-size="11" fill="#92400e">History Gr.4</text>
  
  <rect x="510" y="445" width="80" height="30" rx="4" ry="4" fill="#d1fae5"/>
  <text x="520" y="464" font-family="Arial" font-size="11" fill="#065f46">Science Gr.3</text>
  
  <!-- Status Labels -->
  <rect x="100" y="520" width="190" height="15" rx="7.5" ry="7.5" fill="#dcfce7"/>
  <text x="145" y="531" font-family="Arial" font-size="10" fill="#14532d">SCHEDULE OPTIMIZED</text>
  
  <rect x="310" y="520" width="180" height="15" rx="7.5" ry="7.5" fill="#fee2e2"/>
  <text x="340" y="531" font-family="Arial" font-size="10" fill="#7f1d1d">3 CONFLICTS FOUND</text>
  
  <rect x="510" y="520" width="190" height="15" rx="7.5" ry="7.5" fill="#fef3c7"/>
  <text x="539" y="531" font-family="Arial" font-size="10" fill="#78350f">2 TEACHERS ABSENT</text>
  
  <!-- Decorative Elements -->
  <circle cx="650" cy="40" r="100" fill="#7c3aed" opacity="0.03"/>
  <circle cx="650" cy="40" r="80" fill="#7c3aed" opacity="0.05"/>
  <circle cx="650" cy="40" r="60" fill="#7c3aed" opacity="0.07"/>
  <circle cx="650" cy="40" r="40" fill="#7c3aed" opacity="0.09"/>
  
  <circle cx="90" cy="90" r="4" fill="#ffffff"/>
  <circle cx="105" cy="90" r="4" fill="#ffffff"/>
  <circle cx="120" cy="90" r="4" fill="#ffffff"/>
</svg> 