<svg xmlns="http://www.w3.org/2000/svg" viewBox="0 0 800 600" width="800" height="600">
  <!-- Background -->
  <rect width="800" height="600" fill="#f0f7ff"/>
  
  <!-- Main Container -->
  <rect x="80" y="60" width="640" height="480" rx="12" ry="12" fill="#ffffff" stroke="#dddddd" stroke-width="2"/>
  
  <!-- Header -->
  <defs>
    <linearGradient id="headerGradient" x1="0%" y1="0%" x2="100%" y2="0%">
      <stop offset="0%" style="stop-color:#0284c7" />
      <stop offset="100%" style="stop-color:#38bdf8" />
    </linearGradient>
  </defs>
  <rect x="80" y="60" width="640" height="60" rx="12" ry="12" fill="url(#headerGradient)"/>
  <text x="130" y="100" font-family="Arial" font-size="20" fill="#ffffff">Educational Resource Management</text>
  
  <!-- Navigation Tabs -->
  <rect x="110" y="150" width="580" height="40" rx="6" ry="6" fill="#f8fafc"/>
  <rect x="110" y="150" width="140" height="40" rx="6" ry="6" fill="#0284c7" opacity="0.2"/>
  <text x="140" y="175" font-family="Arial" font-size="14" fill="#1e40af">Teaching Staff</text>
  <text x="280" y="175" font-family="Arial" font-size="14" fill="#64748b">Classrooms</text>
  <text x="400" y="175" font-family="Arial" font-size="14" fill="#64748b">Textbooks</text>
  <text x="520" y="175" font-family="Arial" font-size="14" fill="#64748b">Equipment</text>
  
  <!-- Resource List -->
  <rect x="110" y="210" width="240" height="310" rx="6" ry="6" fill="#f8fafc"/>
  <text x="130" y="240" font-family="Arial" font-size="16" font-weight="bold" fill="#334155">Available Teachers</text>
  
  <!-- Teacher Items -->
  <rect x="120" y="260" width="220" height="50" rx="6" ry="6" fill="#ffffff" stroke="#e2e8f0" stroke-width="1"/>
  <rect x="130" y="270" width="30" height="30" rx="4" ry="4" fill="#0284c7" opacity="0.2"/>
  <text x="170" y="280" font-family="Arial" font-size="14" fill="#334155">Ms. Kimani</text>
  <text x="170" y="300" font-family="Arial" font-size="12" fill="#64748b">Math Specialist • Grades 3-5</text>
  <circle cx="325" cy="285" r="8" fill="#22c55e"/>
  
  <rect x="120" y="320" width="220" height="50" rx="6" ry="6" fill="#ffffff" stroke="#e2e8f0" stroke-width="1"/>
  <rect x="130" y="330" width="30" height="30" rx="4" ry="4" fill="#0284c7" opacity="0.2"/>
  <text x="170" y="340" font-family="Arial" font-size="14" fill="#334155">Mr. Ochieng</text>
  <text x="170" y="360" font-family="Arial" font-size="12" fill="#64748b">English • Grades 4-6</text>
  <circle cx="325" cy="345" r="8" fill="#22c55e"/>
  
  <rect x="120" y="380" width="220" height="50" rx="6" ry="6" fill="#ffffff" stroke="#e2e8f0" stroke-width="1"/>
  <rect x="130" y="390" width="30" height="30" rx="4" ry="4" fill="#0284c7" opacity="0.2"/>
  <text x="170" y="400" font-family="Arial" font-size="14" fill="#334155">Ms. Wanjiku</text>
  <text x="170" y="420" font-family="Arial" font-size="12" fill="#64748b">Science • Grades 3-7</text>
  <circle cx="325" cy="405" r="8" fill="#ef4444"/>
  
  <rect x="120" y="440" width="220" height="50" rx="6" ry="6" fill="#ffffff" stroke="#e2e8f0" stroke-width="1"/>
  <rect x="130" y="450" width="30" height="30" rx="4" ry="4" fill="#0284c7" opacity="0.2"/>
  <text x="170" y="460" font-family="Arial" font-size="14" fill="#334155">Mr. Mwangi</text>
  <text x="170" y="480" font-family="Arial" font-size="12" fill="#64748b">Social Studies • Grades 4-7</text>
  <circle cx="325" cy="465" r="8" fill="#f59e0b"/>
  
  <!-- Resource Details -->
  <rect x="370" y="210" width="320" height="310" rx="6" ry="6" fill="#f8fafc"/>
  <text x="390" y="240" font-family="Arial" font-size="16" font-weight="bold" fill="#334155">Teacher Details</text>
  
  <!-- Teacher Information -->
  <text x="390" y="280" font-family="Arial" font-size="14" fill="#64748b">Name:</text>
  <text x="520" y="280" font-family="Arial" font-size="14" fill="#334155">Ms. Kimani</text>
  
  <text x="390" y="310" font-family="Arial" font-size="14" fill="#64748b">Specialization:</text>
  <text x="520" y="310" font-family="Arial" font-size="14" fill="#334155">Mathematics</text>
  
  <text x="390" y="340" font-family="Arial" font-size="14" fill="#64748b">Grade Levels:</text>
  <text x="520" y="340" font-family="Arial" font-size="14" fill="#334155">3, 4, 5</text>
  
  <text x="390" y="370" font-family="Arial" font-size="14" fill="#64748b">Teaching Load:</text>
  <text x="520" y="370" font-family="Arial" font-size="14" fill="#334155">18/25 hours per week</text>
  
  <text x="390" y="400" font-family="Arial" font-size="14" fill="#64748b">Status:</text>
  <text x="520" y="400" font-family="Arial" font-size="14" fill="#22c55e">Available</text>
  
  <!-- Schedule Quick View -->
  <rect x="390" y="430" width="280" height="70" rx="6" ry="6" fill="#ffffff" stroke="#e2e8f0" stroke-width="1"/>
  <text x="410" y="455" font-family="Arial" font-size="14" font-weight="bold" fill="#334155">Weekly Schedule</text>
  
  <rect x="410" y="470" width="50" height="20" rx="3" ry="3" fill="#0284c7" opacity="0.2"/>
  <text x="420" y="485" font-family="Arial" font-size="10" fill="#334155">Monday</text>
  
  <rect x="470" y="470" width="50" height="20" rx="3" ry="3" fill="#0284c7" opacity="0.2"/>
  <text x="480" y="485" font-family="Arial" font-size="10" fill="#334155">Tuesday</text>
  
  <rect x="530" y="470" width="50" height="20" rx="3" ry="3" fill="#ffffff"/>
  <text x="540" y="485" font-family="Arial" font-size="10" fill="#334155">Thursday</text>
  
  <rect x="590" y="470" width="50" height="20" rx="3" ry="3" fill="#0284c7" opacity="0.2"/>
  <text x="600" y="485" font-family="Arial" font-size="10" fill="#334155">Friday</text>
  
  <!-- Action Buttons -->
  <rect x="500" y="520" width="180" height="40" rx="20" ry="20" fill="url(#headerGradient)"/>
  <text x="540" y="545" font-family="Arial" font-size="14" fill="#ffffff">Assign to Classes</text>
  
  <!-- Optimization Notice -->
  <rect x="110" y="530" width="370" height="30" rx="6" ry="6" fill="#f0f9ff" stroke="#38bdf8" stroke-width="1" stroke-opacity="0.3"/>
  <text x="130" y="550" font-family="Arial" font-size="12" fill="#0284c7">Teacher specialization optimization enabled</text>
  
  <!-- Decorative Elements -->
  <circle cx="90" cy="90" r="4" fill="#ffffff"/>
  <circle cx="105" cy="90" r="4" fill="#ffffff"/>
  <circle cx="120" cy="90" r="4" fill="#ffffff"/>
  
  <circle cx="400" cy="140" r="30" fill="#0284c7" opacity="0.05"/>
  <circle cx="400" cy="140" r="20" fill="#0284c7" opacity="0.07"/>
  <circle cx="400" cy="140" r="10" fill="#0284c7" opacity="0.1"/>
</svg> 