<svg xmlns="http://www.w3.org/2000/svg" viewBox="0 0 300 300" width="300" height="300">
  <!-- Define Gradients -->
  <defs>
    <linearGradient id="backgroundGradient" x1="0%" y1="0%" x2="100%" y2="100%">
      <stop offset="0%" style="stop-color:#eff6ff" />
      <stop offset="100%" style="stop-color:#fdf2f8" />
    </linearGradient>
    
    <linearGradient id="headerGradient" x1="0%" y1="0%" x2="100%" y2="0%">
      <stop offset="0%" style="stop-color:#6366f1" />
      <stop offset="100%" style="stop-color:#ec4899" />
    </linearGradient>
    
    <linearGradient id="itemGradient1" x1="0%" y1="0%" x2="100%" y2="100%">
      <stop offset="0%" style="stop-color:#6366f1" />
      <stop offset="100%" style="stop-color:#818cf8" />
    </linearGradient>
    
    <linearGradient id="itemGradient2" x1="0%" y1="0%" x2="100%" y2="100%">
      <stop offset="0%" style="stop-color:#818cf8" />
      <stop offset="100%" style="stop-color:#c084fc" />
    </linearGradient>
    
    <linearGradient id="itemGradient3" x1="0%" y1="0%" x2="100%" y2="100%">
      <stop offset="0%" style="stop-color:#c084fc" />
      <stop offset="100%" style="stop-color:#f472b6" />
    </linearGradient>
    
    <linearGradient id="itemGradient4" x1="0%" y1="0%" x2="100%" y2="100%">
      <stop offset="0%" style="stop-color:#f472b6" />
      <stop offset="100%" style="stop-color:#ec4899" />
    </linearGradient>
  </defs>
  
  <!-- Background -->
  <rect width="300" height="300" fill="url(#backgroundGradient)" rx="30" ry="30"/>
  
  <!-- Calendar Base -->
  <rect x="50" y="70" width="200" height="180" rx="10" ry="10" fill="#ffffff" stroke="url(#headerGradient)" stroke-width="4"/>
  
  <!-- Calendar Header -->
  <rect x="50" y="70" width="200" height="40" rx="10" ry="10" fill="url(#headerGradient)"/>
  
  <!-- Calendar Grid -->
  <line x1="50" y1="150" x2="250" y2="150" stroke="#e5e7eb" stroke-width="2"/>
  <line x1="50" y1="190" x2="250" y2="190" stroke="#e5e7eb" stroke-width="2"/>
  <line x1="117" y1="110" x2="117" y2="250" stroke="#e5e7eb" stroke-width="2"/>
  <line x1="183" y1="110" x2="183" y2="250" stroke="#e5e7eb" stroke-width="2"/>
  
  <!-- Calendar Items -->
  <rect x="60" y="120" width="47" height="25" rx="5" ry="5" fill="url(#itemGradient1)" opacity="0.9"/>
  <rect x="127" y="120" width="47" height="25" rx="5" ry="5" fill="url(#itemGradient2)" opacity="0.9"/>
  <rect x="193" y="160" width="47" height="25" rx="5" ry="5" fill="url(#itemGradient3)" opacity="0.9"/>
  <rect x="60" y="200" width="114" height="25" rx="5" ry="5" fill="url(#itemGradient4)" opacity="0.9"/>
  
  <!-- Clock Icon Overlay -->
  <circle cx="225" cy="75" r="40" fill="#ffffff" opacity="0.15"/>
  <circle cx="225" cy="75" r="25" fill="#ffffff" stroke="url(#headerGradient)" stroke-width="4" fill-opacity="0.8"/>
  <line x1="225" y1="75" x2="225" y2="60" stroke="#6366f1" stroke-width="4" stroke-linecap="round"/>
  <line x1="225" y1="75" x2="240" y2="75" stroke="#ec4899" stroke-width="4" stroke-linecap="round"/>
  
  <!-- Decorative Elements -->
  <circle cx="40" cy="40" r="60" fill="#6366f1" opacity="0.1"/>
  <circle cx="260" cy="260" r="80" fill="#ec4899" opacity="0.05"/>
</svg> 