<svg width="800" height="600" xmlns="http://www.w3.org/2000/svg">
  <!-- Background -->
  <rect width="800" height="600" fill="#ffffff" />
  
  <!-- Header -->
  <rect x="50" y="50" width="700" height="50" fill="#f3f4f6" />
  <text x="70" y="80" font-family="Arial" font-size="16" fill="#111827">Amagor School</text>
  <rect x="650" y="60" width="70" height="30" rx="5" fill="#f3f4f6" />
  <text x="665" y="80" font-family="Arial" font-size="12" fill="#6b7280">DRAFT</text>
  
  <!-- Tabs -->
  <rect x="50" y="110" width="700" height="30" fill="#ffffff" />
  <text x="70" y="130" font-family="Arial" font-size="14" fill="#6b7280">Summary</text>
  <text x="170" y="130" font-family="Arial" font-size="14" fill="#111827">Plan</text>
  <line x1="170" y1="140" x2="200" y2="140" stroke="#111827" stroke-width="2" />
  
  <!-- Controls -->
  <text x="70" y="170" font-family="Arial" font-size="12" fill="#6b7280">View by</text>
  <rect x="120" y="155" width="120" height="24" rx="3" fill="#ffffff" stroke="#d1d5db" />
  <text x="130" y="170" font-family="Arial" font-size="12" fill="#111827">Grade and Stream</text>
  <rect x="250" y="155" width="80" height="24" rx="3" fill="#ffffff" stroke="#d1d5db" />
  <text x="260" y="170" font-family="Arial" font-size="12" fill="#111827">Primary 3</text>
  <rect x="340" y="155" width="30" height="24" rx="3" fill="#ffffff" stroke="#d1d5db" />
  <text x="350" y="170" font-family="Arial" font-size="12" fill="#111827">A</text>
  <rect x="650" y="155" width="70" height="24" rx="3" fill="#2563eb" />
  <text x="665" y="170" font-family="Arial" font-size="12" fill="#ffffff">Publish</text>
  
  <!-- Timetable -->
  <rect x="50" y="190" width="700" height="250" fill="#ffffff" stroke="#d1d5db" />
  
  <!-- Table Header -->
  <rect x="50" y="190" width="100" height="30" fill="#f3f4f6" stroke="#d1d5db" />
  <rect x="150" y="190" width="120" height="30" fill="#f3f4f6" stroke="#d1d5db" />
  <rect x="270" y="190" width="120" height="30" fill="#f3f4f6" stroke="#d1d5db" />
  <rect x="390" y="190" width="120" height="30" fill="#f3f4f6" stroke="#d1d5db" />
  <rect x="510" y="190" width="120" height="30" fill="#f3f4f6" stroke="#d1d5db" />
  <rect x="630" y="190" width="120" height="30" fill="#f3f4f6" stroke="#d1d5db" />
  
  <text x="70" y="210" font-family="Arial" font-size="12" fill="#6b7280"></text>
  <text x="200" y="210" font-family="Arial" font-size="12" fill="#6b7280">MON</text>
  <text x="320" y="210" font-family="Arial" font-size="12" fill="#6b7280">TUE</text>
  <text x="440" y="210" font-family="Arial" font-size="12" fill="#6b7280">WED</text>
  <text x="560" y="210" font-family="Arial" font-size="12" fill="#6b7280">THU</text>
  <text x="680" y="210" font-family="Arial" font-size="12" fill="#6b7280">FRI</text>
  
  <!-- First Row -->
  <rect x="50" y="220" width="100" height="60" fill="#ffffff" stroke="#d1d5db" />
  <rect x="150" y="220" width="120" height="60" fill="#ffffff" stroke="#d1d5db" />
  <rect x="270" y="220" width="120" height="60" fill="#ffffff" stroke="#d1d5db" />
  <rect x="390" y="220" width="120" height="60" fill="#ffffff" stroke="#d1d5db" />
  <rect x="510" y="220" width="120" height="60" fill="#ffffff" stroke="#d1d5db" />
  <rect x="630" y="220" width="120" height="60" fill="#ffffff" stroke="#d1d5db" />
  
  <text x="70" y="240" font-family="Arial" font-size="12" fill="#6b7280">8 AM</text>
  
  <!-- Activities -->
  <rect x="155" y="225" width="110" height="20" rx="2" fill="#fef3c7" />
  <text x="165" y="238" font-family="Arial" font-size="10" fill="#92400e">Jolly Phonics</text>
  
  <rect x="275" y="225" width="110" height="20" rx="2" fill="#fef3c7" />
  <text x="285" y="238" font-family="Arial" font-size="10" fill="#92400e">Jolly Phonics</text>
  
  <rect x="395" y="225" width="110" height="20" rx="2" fill="#fef3c7" />
  <text x="405" y="238" font-family="Arial" font-size="10" fill="#92400e">Jolly Phonics</text>
  
  <rect x="515" y="225" width="110" height="20" rx="2" fill="#fef3c7" />
  <text x="525" y="238" font-family="Arial" font-size="10" fill="#92400e">Jolly Phonics</text>
  
  <rect x="635" y="225" width="110" height="20" rx="2" fill="#fef3c7" />
  <text x="645" y="238" font-family="Arial" font-size="10" fill="#92400e">Jolly Phonics</text>
  
  <!-- Second Row with conflict -->
  <rect x="50" y="280" width="100" height="60" fill="#ffffff" stroke="#d1d5db" />
  <rect x="150" y="280" width="120" height="60" fill="#ffffff" stroke="#d1d5db" />
  <rect x="270" y="280" width="120" height="60" fill="#ffffff" stroke="#d1d5db" />
  <rect x="390" y="280" width="120" height="60" fill="#ffffff" stroke="#d1d5db" />
  <rect x="510" y="280" width="120" height="60" fill="#ffffff" stroke="#d1d5db" />
  <rect x="630" y="280" width="120" height="60" fill="#ffffff" stroke="#d1d5db" />
  
  <text x="70" y="300" font-family="Arial" font-size="12" fill="#6b7280">10 AM</text>
  
  <!-- Break -->
  <rect x="155" y="285" width="110" height="15" rx="2" fill="#e5e7eb" />
  <text x="190" y="296" font-family="Arial" font-size="10" fill="#4b5563">Long Break</text>
  
  <rect x="275" y="285" width="110" height="15" rx="2" fill="#e5e7eb" />
  <text x="310" y="296" font-family="Arial" font-size="10" fill="#4b5563">Long Break</text>
  
  <!-- Conflict -->
  <rect x="275" y="305" width="50" height="20" rx="2" fill="#dbeafe" />
  <text x="277" y="318" font-family="Arial" font-size="8" fill="#1e40af">Social Studies</text>
  <circle cx="320" cy="308" r="5" fill="#ef4444" />
  <text x="318" y="311" font-family="Arial" font-size="8" fill="#ffffff">!</text>
  
  <rect x="330" y="305" width="50" height="20" rx="2" fill="#dcfce7" />
  <text x="335" y="318" font-family="Arial" font-size="8" fill="#166534">English</text>
  <circle cx="375" cy="308" r="5" fill="#ef4444" />
  <text x="373" y="311" font-family="Arial" font-size="8" fill="#ffffff">!</text>
  
  <!-- Error Explanation -->
  <rect x="50" y="450" width="400" height="80" rx="4" fill="#fef2f2" stroke="#fee2e2" />
  <text x="70" y="480" font-family="Arial" font-weight="bold" font-size="14" fill="#991b1b">Teacher Conflict</text>
  <text x="70" y="500" font-family="Arial" font-size="12" fill="#4b5563">A teacher is teaching Social Studies and English at the same time for P3A on Tuesday at 10:25 to 11:00 AM</text>
</svg> 